<svg xmlns="http://www.w3.org/2000/svg" viewBox="0 0 42.66 285.3"><defs><style>.cls-1{fill:#4ead9b;}.cls-2{fill:#f8f9f3;}</style></defs><g id="Layer_2" data-name="Layer 2"><g id="Camada_2" data-name="Camada 2"><rect class="cls-1" width="42.66" height="285.3"/><polygon class="cls-2" points="27.86 51.91 22.78 51.91 22.78 46.84 17.71 46.84 17.71 51.91 12.63 51.91 12.63 56.98 17.71 56.98 17.71 62.06 22.78 62.06 22.78 56.98 27.86 56.98 27.86 51.91"/><circle class="cls-2" cx="20.24" cy="19.03" r="0.88"/><circle class="cls-2" cx="20.24" cy="29.03" r="0.88"/><circle class="cls-2" cx="20.24" cy="39.03" r="0.88"/><circle class="cls-2" cx="20.24" cy="49.03" r="0.88"/><circle class="cls-2" cx="20.24" cy="59.03" r="0.88"/><circle class="cls-2" cx="20.24" cy="69.03" r="0.88"/><circle class="cls-2" cx="20.24" cy="79.03" r="0.88"/><circle class="cls-2" cx="20.24" cy="89.03" r="0.88"/><circle class="cls-2" cx="20.24" cy="99.03" r="0.88"/><circle class="cls-2" cx="20.24" cy="109.03" r="0.88"/><circle class="cls-2" cx="20.24" cy="119.03" r="0.88"/><circle class="cls-2" cx="20.24" cy="129.03" r="0.88"/><circle class="cls-2" cx="20.24" cy="139.03" r="0.88"/><circle class="cls-2" cx="20.24" cy="149.03" r="0.88"/><circle class="cls-2" cx="20.24" cy="159.03" r="0.88"/><circle class="cls-2" cx="20.24" cy="169.03" r="0.88"/><circle class="cls-2" cx="20.24" cy="179.03" r="0.88"/><circle class="cls-2" cx="20.24" cy="189.03" r="0.88"/><circle class="cls-2" cx="20.24" cy="199.03" r="0.88"/><circle class="cls-2" cx="20.24" cy="209.03" r="0.88"/><circle class="cls-2" cx="20.24" cy="219.03" r="0.88"/></g></g></svg>