<?xml version="1.0" encoding="utf-8"?>
<!-- Generator: Adobe Illustrator 24.2.3, SVG Export Plug-In . SVG Version: 6.00 Build 0)  -->
<svg version="1.1" id="Layer_1" xmlns="http://www.w3.org/2000/svg" xmlns:xlink="http://www.w3.org/1999/xlink" x="0px" y="0px"
	 viewBox="0 0 225 65.2" style="enable-background:new 0 0 225 65.2;" xml:space="preserve">
<style type="text/css">
	.st0{fill:#FCCE59;}
	.st1{fill:#FFFFFF;}
</style>
<path class="st0" d="M15.6,59.2c-1.7-4.4-5.2-7.9-9.6-9.6v-34c4.4-1.7,7.9-5.2,9.6-9.6h193.8c1.7,4.4,5.2,7.9,9.6,9.6v34
	c-4.4,1.7-7.9,5.2-9.6,9.6L15.6,59.2z"/>
<path class="st1" d="M214.3,0L214.3,0H10.7c0,5.9-4.8,10.7-10.7,10.7v43.7c5.9,0,10.7,4.8,10.7,10.7l0,0h203.6
	c0-5.9,4.8-10.7,10.7-10.7V10.7C219.1,10.7,214.3,5.9,214.3,0z M223,52.6c-5.4,0.9-9.7,5.2-10.6,10.6H12.6
	C11.7,57.8,7.4,53.5,2,52.6v-40C7.4,11.7,11.7,7.4,12.6,2h199.9c0.9,5.4,5.2,9.7,10.6,10.6v40H223z"/>
</svg>
