<svg xmlns="http://www.w3.org/2000/svg" viewBox="0 0 117.64 128.82"><defs><style>.cls-1{fill:#4ead9b;}</style></defs><g id="Layer_2" data-name="Layer 2"><g id="Camada_2" data-name="Camada 2"><path class="cls-1" d="M98.46,23.39c-2.33-6.9-5.26-9.94-19.29-10.64S58.83,1,58.82,0V.1c0,1-6.35,12-20.35,12.74S21.52,16.58,19.18,23.48C19.18,23.48.82,27.8,0,45V83.91c.82,17.2,19.18,21.52,19.18,21.52,2.34,6.9,5.26,9.94,19.29,10.64s20.34,11.75,20.35,12.75v-.1c0-1,6.35-12,20.35-12.74s17-3.74,19.29-10.64c0,0,18.36-4.32,19.18-21.51V44.91C116.82,27.72,98.46,23.39,98.46,23.39Z"/></g></g></svg>