<?xml version="1.0" encoding="utf-8"?>
<!-- Generator: Adobe Illustrator 24.2.3, SVG Export Plug-In . SVG Version: 6.00 Build 0)  -->
<svg version="1.1" id="Layer_1" xmlns="http://www.w3.org/2000/svg" xmlns:xlink="http://www.w3.org/1999/xlink" x="0px" y="0px"
	 viewBox="0 0 285 308.6" style="enable-background:new 0 0 285 308.6;" xml:space="preserve">
<style type="text/css">
	.st0{fill:#DF614A;}
	.st1{fill:none;stroke:#FFFFFF;stroke-width:3;stroke-miterlimit:10;}
	.st2{fill:#4EAD9B;}
</style>
<g>
	<path class="st0" d="M142.5,6.5c4.5,0,8.4,3,9.6,7.3c7.4,12,20.3,19.5,34.4,20c28.4,1.4,41,7.6,48.3,24.6
		c16.8,5.8,42,22.2,43.5,53.8c0,0.2,0,0.3,0,0.5v83.3c0,0.2,0,0.3,0,0.5c-1.5,31.5-26.7,48-43.5,53.8c-7.3,17-20,23.1-48.3,24.6
		c-14,0.5-26.8,7.9-34.3,19.8c-1.1,4.5-5.1,7.7-9.7,7.7l-0.1,0c0,0,0,0,0,0c-4.5,0-8.4-3-9.6-7.3c-7.4-12-20.3-19.5-34.4-20
		c-28.4-1.4-41-7.6-48.4-24.6c-16.8-5.7-42-22.2-43.4-53.7c0-0.2,0-0.3,0-0.5v-83.3c0-0.2,0-0.3,0-0.5c1.5-31.5,26.7-48,43.5-53.8
		c7.3-17,20-23.1,48.4-24.6c14-0.5,26.8-7.9,34.3-19.8C133.9,9.7,137.9,6.5,142.5,6.5C142.5,6.5,142.5,6.5,142.5,6.5 M142.5,1.5
		l-0.1,0c-6.6,0.1-12.3,4.4-14.2,10.6c-6.6,10.1-17.7,16.4-29.9,16.9c0,0,0,0-0.1,0c-15.5,0.8-26,2.9-34,7
		c-7.9,4-13.6,9.9-17.7,18.6C25.4,62.4,3.1,81.4,1.7,112c0,0.1,0,0.2,0,0.2v0.5V196v0.5c0,0.1,0,0.2,0,0.2
		c0.7,15.3,6.6,28.7,17.4,39.8c9.7,9.9,20.6,15.1,27.4,17.7c4.2,8.7,9.8,14.6,17.7,18.6c8,4,18.5,6.2,34.1,7c0,0,0,0,0.1,0
		c12.2,0.5,23.4,6.8,30,17.1c2,5.8,7.4,9.9,13.6,10.2c0.2,0,0.5,0.1,0.7,0.1c0,0,0,0,0,0c6.6,0,12.4-4.3,14.3-10.6
		c6.6-10.1,17.7-16.4,29.9-16.8c0,0,0,0,0.1,0c15.5-0.8,26-2.9,34-7c7.9-4,13.6-9.9,17.7-18.6c6.8-2.6,17.7-7.8,27.4-17.7
		c10.8-11.1,16.7-24.5,17.4-39.8c0-0.1,0-0.2,0-0.2v-0.5v-83.3v-0.5c0-0.1,0-0.2,0-0.2c-1.4-30.6-23.7-49.6-44.8-57.5
		c-4.2-8.7-9.8-14.6-17.7-18.6c-8-4-18.5-6.2-34.1-7c0,0,0,0-0.1,0c-12.2-0.5-23.4-6.8-30-17.1C154.7,5.6,149,1.5,142.5,1.5
		L142.5,1.5z"/>
</g>
<path class="st1" d="M142.5,302.1c-4.5,0-8.4-3-9.6-7.3c-7.4-12-20.3-19.5-34.4-20c-28.4-1.4-41-7.6-48.4-24.6
	c-16.8-5.7-42-22.2-43.4-53.7c0-0.2,0-0.3,0-0.5v-83.3c0-0.2,0-0.3,0-0.5c1.5-31.5,26.7-48,43.5-53.8c7.3-17,20-23.1,48.4-24.6
	c14-0.5,26.8-7.9,34.3-19.8c1.1-4.5,5-7.6,9.7-7.7l0,0c4.5,0,8.5,3,9.7,7.3c7.4,12,20.3,19.5,34.4,20c28.4,1.4,41,7.6,48.3,24.6
	c16.8,5.8,42,22.2,43.5,53.8c0,0.2,0,0.3,0,0.5v83.3c0,0.2,0,0.3,0,0.5c-1.5,31.5-26.7,48-43.5,53.8c-7.3,17-20,23.1-48.3,24.6
	c-14,0.5-26.8,7.9-34.3,19.8C151.2,298.9,147.2,302.1,142.5,302.1L142.5,302.1z"/>
<path class="st2" d="M227.3,66.5c-5-14.8-11.3-21.3-41.3-22.8s-43.5-25.1-43.5-27.3v0.2C142.4,19,128.9,42.4,99,44
	s-36.3,8-41.3,22.7c0,0-39.3,9.2-41,46V196c1.8,36.8,41,46,41,46c5,14.8,11.3,21.3,41.3,22.8s43.5,25.1,43.5,27.3v-0.2
	c0.1-2.3,13.6-25.8,43.5-27.3s36.3-8,41.3-22.8c0,0,39.3-9.3,41-46v-83.2C266.6,75.8,227.3,66.5,227.3,66.5z"/>
</svg>
