<svg xmlns="http://www.w3.org/2000/svg" viewBox="0 0 95.15 229.87"><defs><style>.cls-1{fill:#fff;}</style></defs><g id="Layer_2" data-name="Layer 2"><g id="Layer_1-2" data-name="Layer 1"><path class="cls-1" d="M8.45,3.44C39.83,4.94,48,37.65,48.28,39l.21.93.9.3c12.41,4.21,18,8.85,19.33,35.6A49,49,0,0,0,91.1,115C83.86,119.27,70,131.87,68.89,154c-1.32,26.76-6.92,31.4-19.32,35.6l-.9.31-.22.92C48.15,192.24,40,225,8.7,226.46H0v3.41H8.78c30.91-1.47,41.09-31.58,42.75-37.32,13.53-4.77,19.44-11.49,20.78-38.38,1.28-25.6,20.84-37.06,22.84-37.54v-3.41h-.07c-2.46-.68-21.67-12.15-22.93-37.54C70.8,48.8,64.89,42.07,51.36,37.3,49.7,31.58,39.53,1.47,8.53,0H0V3.44Z"/></g></g></svg>