<?xml version="1.0" encoding="utf-8"?>
<!-- Generator: Adobe Illustrator 24.2.3, SVG Export Plug-In . SVG Version: 6.00 Build 0)  -->
<svg version="1.1" id="Layer_1" xmlns="http://www.w3.org/2000/svg" xmlns:xlink="http://www.w3.org/1999/xlink" x="0px" y="0px"
	 viewBox="0 0 221.6 241.1" style="enable-background:new 0 0 221.6 241.1;" xml:space="preserve">
<style type="text/css">
	.st0{fill:#FFFFFF;}
	.st1{fill:#FEDC7C;}
</style>
<g id="Layer_2_1_">
	<g id="Camada_2">
		<path class="st0" d="M110.8,240.7c-3.7,0-6.9-2.4-7.8-6c-6-9.7-16.5-15.8-28-16.2c-23.1-1.2-33.3-6.1-39.3-19.9
			c-13.6-4.7-34.1-18.1-35.3-43.7c0-0.1,0-0.3,0-0.4V86.8c0-0.1,0-0.3,0-0.4c1.2-25.6,21.7-39,35.3-43.7C41.7,28.9,52,23.9,75,22.8
			c11.4-0.4,21.8-6.4,27.9-16.1c0.9-3.7,4.1-6.2,7.9-6.3l0,0c3.7,0,6.9,2.5,7.8,6c6,9.7,16.5,15.8,28,16.2
			c23.1,1.1,33.3,6.1,39.3,19.9c13.6,4.7,34.1,18.1,35.3,43.7c0,0.1,0,0.2,0,0.4v67.7c0,0.1,0,0.3,0,0.4
			c-1.2,25.6-21.7,39-35.3,43.7c-6,13.8-16.2,18.8-39.3,19.9c-11.4,0.4-21.8,6.4-27.9,16.1C117.8,238,114.5,240.6,110.8,240.7
			L110.8,240.7z"/>
		<path class="st1" d="M179.7,49.3c-4.1-12-9.1-17.3-33.5-18.5c-24.4-1.2-35.4-20.4-35.4-22.2v0.2c-0.1,1.8-11,20.9-35.4,22.1
			S46,37.4,41.9,49.4c0,0-31.9,7.5-33.3,37.4v67.7c1.4,29.9,33.3,37.4,33.3,37.4c4.1,12,9.1,17.3,33.5,18.5s35.4,20.4,35.4,22.2
			v-0.2c0.1-1.8,11-20.9,35.4-22.1s29.5-6.5,33.6-18.5c0,0,31.9-7.5,33.3-37.4V86.6C211.6,56.8,179.7,49.3,179.7,49.3z"/>
	</g>
</g>
</svg>
