<?xml version="1.0" encoding="utf-8"?>
<!-- Generator: Adobe Illustrator 24.2.3, SVG Export Plug-In . SVG Version: 6.00 Build 0)  -->
<svg version="1.1" id="Layer_1" xmlns="http://www.w3.org/2000/svg" xmlns:xlink="http://www.w3.org/1999/xlink" x="0px" y="0px"
	 viewBox="0 0 285 308.6" style="enable-background:new 0 0 285 308.6;" xml:space="preserve">
<style type="text/css">
	.st0{fill:none;stroke:#FFFFFF;stroke-width:3;stroke-miterlimit:10;}
	.st1{fill:#4EAD9B;}
</style>
<path class="st0" d="M142.5,302.1c-4.5,0-8.4-3-9.6-7.3c-7.4-12-20.3-19.5-34.4-20c-28.4-1.4-41-7.6-48.4-24.6
	c-16.8-5.7-42-22.2-43.4-53.7c0-0.2,0-0.3,0-0.5v-83.3c0-0.2,0-0.3,0-0.5c1.5-31.5,26.7-48,43.5-53.8c7.3-17,20-23.1,48.4-24.6
	c14-0.5,26.8-7.9,34.3-19.8c1.1-4.5,5-7.6,9.7-7.7l0,0c4.5,0,8.5,3,9.7,7.3c7.4,12,20.3,19.5,34.4,20c28.4,1.4,41,7.6,48.3,24.6
	c16.8,5.8,42,22.2,43.5,53.8c0,0.2,0,0.3,0,0.5v83.3c0,0.2,0,0.3,0,0.5c-1.5,31.5-26.7,48-43.5,53.8c-7.3,17-20,23.1-48.3,24.6
	c-14,0.5-26.8,7.9-34.3,19.8C151.2,298.9,147.2,302.1,142.5,302.1L142.5,302.1z"/>
<path class="st1" d="M227.3,66.5c-5-14.8-11.3-21.3-41.3-22.8s-43.5-25.1-43.5-27.3v0.2C142.4,19,128.9,42.4,99,44
	s-36.3,8-41.3,22.7c0,0-39.3,9.2-41,46V196c1.8,36.8,41,46,41,46c5,14.8,11.3,21.3,41.3,22.8s43.5,25.1,43.5,27.3v-0.2
	c0.1-2.3,13.6-25.8,43.5-27.3s36.3-8,41.3-22.8c0,0,39.3-9.3,41-46v-83.2C266.6,75.8,227.3,66.5,227.3,66.5z"/>
</svg>
