<svg xmlns="http://www.w3.org/2000/svg" viewBox="0 0 960.24 229.87"><defs><style>.cls-1{fill:#fff;}</style></defs><g id="Layer_2" data-name="Layer 2"><g id="Camada_2" data-name="Camada 2"><path class="cls-1" d="M855.43,229.87H86.62c-31-1.47-41.17-31.58-42.83-37.3C30.26,187.8,24.35,181.07,23,154.19,21.74,128.8,2.53,117.33.07,116.65H0v-3.41c2-.48,21.56-11.94,22.84-37.54,1.34-26.89,7.25-33.61,20.78-38.38C45.28,31.58,55.46,1.47,86.37,0H873.44c31,1.48,41.18,31.58,42.84,37.31,13.52,4.77,19.43,11.49,20.78,38.38,1.27,25.38,20.48,36.85,22.94,37.53l0,0h0v3.41h.18c-2.18.49-21.73,11.94-23,37.55-1.35,26.88-7.25,33.61-20.78,38.38-1.66,5.72-11.85,35.83-42.75,37.3ZM4.05,114.92A49,49,0,0,1,26.43,154c1.34,26.75,6.92,31.39,19.33,35.6l.9.3.21.93c.33,1.39,8.45,34.1,39.83,35.6H873.62c31.3-1.5,39.41-34.21,39.74-35.6l.22-.92.9-.31c12.41-4.2,18-8.84,19.32-35.6,1.12-22.2,15-34.75,22.22-39.07a49,49,0,0,1-22.39-39.09c-1.33-26.76-6.91-31.4-19.32-35.6l-.9-.31-.22-.92c-.33-1.4-8.45-34.11-39.83-35.6H86.45C55.15,4.92,47,37.63,46.7,39l-.22.92-.9.31c-12.4,4.2-18,8.84-19.32,35.6C25.15,98,11.29,110.6,4.05,114.92Z"/></g></g></svg>