<?xml version="1.0" encoding="utf-8"?>
<!-- Generator: Adobe Illustrator 24.2.3, SVG Export Plug-In . SVG Version: 6.00 Build 0)  -->
<svg version="1.1" id="Layer_1" xmlns="http://www.w3.org/2000/svg" xmlns:xlink="http://www.w3.org/1999/xlink" x="0px" y="0px"
	 viewBox="0 0 1037.3 181.5" style="enable-background:new 0 0 1037.3 181.5;" xml:space="preserve">
<style type="text/css">
	.st0{fill:none;stroke:#FEDC7C;stroke-width:3;stroke-linecap:round;stroke-linejoin:round;stroke-miterlimit:10;}
</style>
<g id="Layer_2_1_">
	<g id="Camada_2">
		<path class="st0" d="M998.8,150.3c10.4-3.5,14.9-7.9,16-29c1.1-21.1,17.7-30.5,19.2-30.5h-0.1c-1.6-0.1-18.1-9.5-19.1-30.5
			c-1-21-5.6-25.5-16-29c0,0-6.5-27.6-32.3-28.8H71.2C45.3,3.6,38.8,31.2,38.8,31.2c-10.4,3.5-14.9,7.9-16,29S5.2,90.7,3.7,90.8h0.2
			c1.6,0.1,18.1,9.5,19.1,30.6s5.6,25.5,16,29c0,0,6.5,27.6,32.3,28.8h895.2C992.3,177.9,998.8,150.3,998.8,150.3z"/>
	</g>
</g>
</svg>
