<svg xmlns="http://www.w3.org/2000/svg" viewBox="0 0 95.15 229.87"><defs><style>.cls-1{fill:#fff;}</style></defs><g id="Layer_2" data-name="Layer 2"><g id="Layer_1-2" data-name="Layer 1"><path class="cls-1" d="M86.7,226.43c-31.38-1.5-39.5-34.21-39.83-35.6l-.21-.93-.9-.3c-12.41-4.21-18-8.85-19.33-35.6A49,49,0,0,0,4.05,114.92C11.29,110.6,25.15,98,26.26,75.83c1.32-26.76,6.92-31.4,19.32-35.6l.9-.31L46.7,39C47,37.63,55.15,4.92,86.45,3.41h8.7V0H86.37C55.46,1.47,45.28,31.58,43.62,37.32,30.09,42.09,24.18,48.81,22.84,75.7,21.56,101.3,2,112.76,0,113.24v3.41H.07c2.46.68,21.67,12.15,22.93,37.54,1.35,26.88,7.26,33.61,20.79,38.38,1.66,5.72,11.83,35.83,42.83,37.3h8.53v-3.44Z"/></g></g></svg>