<svg xmlns="http://www.w3.org/2000/svg" viewBox="0 0 160.44 174.6"><defs><style>.cls-1{fill:none;stroke:#fedc7c;stroke-miterlimit:10;}</style></defs><g id="Layer_2" data-name="Layer 2"><g id="Camada_2" data-name="Camada 2"><path class="cls-1" d="M134,31.7c-3.17-9.35-7.13-13.47-26.15-14.42S80.23,1.36,80.22,0V.14c-.06,1.43-8.61,16.31-27.58,17.26s-23,5.07-26.15,14.42c0,0-24.88,5.87-26,29.17v52.74c1.11,23.3,26,29.17,26,29.17,3.17,9.35,7.13,13.47,26.15,14.42s27.57,15.92,27.58,17.27v-.13c.06-1.43,8.61-16.31,27.58-17.26s23-5.07,26.15-14.43c0,0,24.88-5.86,26-29.16V60.86C158.83,37.57,134,31.7,134,31.7Z"/></g></g></svg>