<?xml version="1.0" encoding="utf-8"?>
<!-- Generator: Adobe Illustrator 24.3.0, SVG Export Plug-In . SVG Version: 6.00 Build 0)  -->
<svg version="1.1" id="Camada_2" xmlns="http://www.w3.org/2000/svg" xmlns:xlink="http://www.w3.org/1999/xlink" x="0px" y="0px"
	 viewBox="0 0 54.6 39.2" style="enable-background:new 0 0 54.6 39.2;" xml:space="preserve">
<style type="text/css">
	.st0{fill:#FFFDF5;}
	.st1{fill:none;stroke:#FEDC7C;stroke-width:2;stroke-miterlimit:10;}
	.st2{fill:#3B3944;}
	.st3{fill:#4EAD9B;}
	.st4{fill:#FEDC7C;}
	.st5{fill:#DF614A;}
	.st6{fill:#FFFFFF;}
	.st7{fill:#2D291C;}
	.st8{fill:#D13239;}
	.st9{fill:#1D1D1B;}
	.st10{fill:#4EAD9B;stroke:#FFFFFF;stroke-miterlimit:10;}
	.st11{fill:#FEDC7C;stroke:#FFFFFF;stroke-miterlimit:10;}
	.st12{fill:#4EAD9B;stroke:#FFFFFF;stroke-width:2;stroke-miterlimit:10;}
	.st13{fill:#FEDC7C;stroke:#FFFFFF;stroke-width:2;stroke-miterlimit:10;}
	.st14{opacity:0.44;}
	.st15{fill:#F8F9F3;}
	.st16{fill:#F05C36;}
	.st17{fill:none;stroke:#155051;stroke-width:0.5;stroke-miterlimit:10;}
	.st18{fill:#11838D;}
	.st19{fill:#F15D37;}
	.st20{fill:#DCB244;}
	.st21{fill:none;stroke:#FFFFFF;stroke-width:3;stroke-miterlimit:10;}
	.st22{fill:none;stroke:#FEDC7C;stroke-miterlimit:10;}
	.st23{fill:none;stroke:#DCB244;stroke-width:3;stroke-miterlimit:10;}
	.st24{fill:#536870;}
	.st25{fill:#B5BEC4;}
	.st26{fill:#DAE0E5;}
	.st27{fill:#333333;}
	.st28{fill:#808285;}
	.st29{fill:#DFEFEC;stroke:#4EAD9B;stroke-miterlimit:10;}
	.st30{fill:none;stroke:#4EAD9B;stroke-miterlimit:10;}
	.st31{fill:#13BAB1;}
	.st32{fill:#909AA0;}
	.st33{clip-path:url(#SVGID_2_);}
	.st34{fill:none;stroke:#FFFFFF;stroke-width:2;stroke-miterlimit:10;}
</style>
<path class="st5" d="M54.26,8.81c-0.74-3-2.61-5.54-5.25-7.14c-2.65-1.6-5.76-2.07-8.76-1.33c-2.76,0.68-5.11,2.31-6.71,4.62
	c-0.17-0.11-0.33-0.24-0.51-0.34c-3.39-2.05-7.38-2.66-11.23-1.71c-3.85,0.95-7.1,3.34-9.15,6.73c-1.04,1.72-1.7,3.59-1.99,5.52
	c-1.03-0.07-2.08,0-3.11,0.26c-2.57,0.63-4.74,2.23-6.11,4.5s-1.78,4.93-1.14,7.51c0.63,2.57,2.23,4.74,4.5,6.12
	c1.56,0.94,3.31,1.43,5.09,1.43c0.81,0,1.62-0.09,2.42-0.29c2.58-0.64,4.67-2.24,5.99-4.32c2.1,1.14,4.41,1.75,6.76,1.79
	c1.18,2.02,2.85,3.73,4.92,4.98c2.24,1.35,4.75,2.05,7.3,2.06c1.16,0,2.32-0.14,3.47-0.42c3.69-0.91,6.8-3.2,8.77-6.46
	c1.97-3.25,2.55-7.08,1.64-10.77c-0.11-0.45-0.25-0.9-0.4-1.33c0.85-0.76,1.59-1.65,2.19-2.65C54.53,14.93,55,11.82,54.26,8.81z
	 M25.38,27.91c-0.79-3.19-0.28-6.49,1.41-9.3c1.2-1.98,2.9-3.54,4.91-4.57c0.02,0.11,0.04,0.22,0.06,0.32
	c0.74,3,2.61,5.54,5.25,7.14c0.15,0.09,0.3,0.17,0.45,0.25c-0.28,0.78-0.64,1.53-1.08,2.26c-1.78,2.95-4.61,5.03-7.96,5.86
	c-0.75,0.18-1.5,0.29-2.25,0.34C25.85,29.48,25.58,28.71,25.38,27.91z M39.76,13.77c-0.08-0.31-0.18-0.61-0.27-0.91
	c1.46,0.26,2.88,0.79,4.2,1.58c2.06,1.25,3.68,3.03,4.7,5.16c-0.92,0.62-1.95,1.08-3.05,1.36c-1.86,0.46-3.77,0.36-5.53-0.27
	C40.32,18.44,40.33,16.08,39.76,13.77z M33.91,11.16c-0.18,0.05-0.36,0.11-0.54,0.16c0.03-1.18,0.28-2.35,0.75-3.45
	c0.91,0.84,1.69,1.82,2.34,2.9C35.61,10.83,34.76,10.95,33.91,11.16z M11.84,32.82c-2.07,0.51-4.22,0.18-6.05-0.92
	c-1.83-1.1-3.11-2.85-3.63-4.92c-0.51-2.07-0.18-4.22,0.92-6.05c1.1-1.83,2.85-3.11,4.92-3.63c0.65-0.16,1.3-0.24,1.95-0.24
	c0.19,0,0.37,0.03,0.55,0.04c-0.02,1.26,0.11,2.52,0.42,3.77c0.85,3.45,2.87,6.41,5.72,8.47C15.55,31.1,13.85,32.33,11.84,32.82z
	 M19.17,28.65c0.72-1.84,0.9-3.9,0.39-5.96c-0.63-2.57-2.23-4.74-4.5-6.12c-0.79-0.48-1.62-0.83-2.49-1.07
	C13.3,10.45,17,6.09,22.25,4.79c1.05-0.26,2.09-0.38,3.12-0.38c2.6,0.01,5.08,0.81,7.17,2.21c-0.81,1.69-1.18,3.53-1.11,5.39
	c-2.6,1.17-4.79,3.1-6.3,5.59c-1.97,3.25-2.55,7.08-1.64,10.77c0.15,0.62,0.36,1.21,0.58,1.79C22.38,30,20.71,29.49,19.17,28.65z
	 M49.26,22.02c0.79,3.19,0.28,6.49-1.41,9.3c-1.7,2.81-4.39,4.79-7.58,5.58c-3.19,0.79-6.49,0.28-9.3-1.41
	c-1.48-0.9-2.73-2.07-3.69-3.45c0.55-0.07,1.09-0.17,1.63-0.3c3.85-0.95,7.1-3.34,9.15-6.73c0.48-0.79,0.87-1.62,1.19-2.47
	c1.2,0.42,2.46,0.63,3.73,0.64c0.94,0,1.89-0.11,2.82-0.34c1.18-0.29,2.29-0.76,3.3-1.38C49.15,21.64,49.21,21.83,49.26,22.02z
	 M51.28,16.58c-0.39,0.65-0.86,1.24-1.38,1.76c-1.19-2.27-2.97-4.19-5.22-5.55c-1.86-1.12-3.9-1.78-6-1.98
	c-0.87-1.79-2.09-3.38-3.61-4.69c1.34-1.96,3.31-3.34,5.63-3.91c0.78-0.19,1.57-0.29,2.35-0.28c1.73,0,3.43,0.48,4.95,1.39
	c2.21,1.33,3.76,3.45,4.38,5.95C53,11.78,52.61,14.37,51.28,16.58z"/>
</svg>
