<svg xmlns="http://www.w3.org/2000/svg" viewBox="0 0 25.73 28.1"><defs><style>.cls-1{fill:#fff;}</style></defs><g id="Layer_2" data-name="Layer 2"><g id="Camada_2" data-name="Camada 2"><path class="cls-1" d="M14.92,2.86V3.7l3.46,1a3,3,0,0,1,.23-.57c.66-1,1.21-1.12,2.19-.38l1.78,1.37c.86.66.89,1,.18,1.84a6.19,6.19,0,0,0-.36.52,32.29,32.29,0,0,1,1.94,2.89A11.72,11.72,0,0,1,21.53,24.9,13.3,13.3,0,0,1,3.1,23.83,11.86,11.86,0,0,1,5.71,5.71,14.71,14.71,0,0,1,8.05,4.52c.8-.32,1.66-.51,2.53-.77V2.86c-.45,0-.88,0-1.31,0a1.33,1.33,0,0,1-1.42-1.4A1.31,1.31,0,0,1,9.24,0c2.31,0,4.62,0,6.94,0a1.3,1.3,0,0,1,1.38,1.49A1.31,1.31,0,0,1,16.1,2.86Zm8.71,13a9.78,9.78,0,0,0-1.23-4.78A11.08,11.08,0,0,0,5.61,8.28,9.89,9.89,0,0,0,4.1,21.84a11.12,11.12,0,0,0,12.75,3.55A10.25,10.25,0,0,0,23.63,15.87Z"/><path class="cls-1" d="M13.46,13.54c0,.82,0,1.63,0,2.44a.73.73,0,0,0,.42.74c1.35.81,2.69,1.65,4,2.48.7.44.91.95.6,1.48s-1,.65-1.69.22c-1.68-1-3.36-2.08-5.05-3.1a.75.75,0,0,1-.42-.75c0-2,0-3.91,0-5.87,0-.82.39-1.28,1.05-1.28s1.05.47,1.05,1.27v2.37Z"/></g></g></svg>