<?xml version="1.0" encoding="utf-8"?>
<!-- Generator: Adobe Illustrator 24.3.0, SVG Export Plug-In . SVG Version: 6.00 Build 0)  -->
<svg version="1.1" id="Camada_2" xmlns="http://www.w3.org/2000/svg" xmlns:xlink="http://www.w3.org/1999/xlink" x="0px" y="0px"
	 viewBox="0 0 57.24 36.29" style="enable-background:new 0 0 57.24 36.29;" xml:space="preserve">
<style type="text/css">
	.st0{fill:#FFFDF5;}
	.st1{fill:none;stroke:#FEDC7C;stroke-width:2;stroke-miterlimit:10;}
	.st2{fill:#3B3944;}
	.st3{fill:#4EAD9B;}
	.st4{fill:#FEDC7C;}
	.st5{fill:#DF614A;}
	.st6{fill:#FFFFFF;}
	.st7{fill:#2D291C;}
	.st8{fill:#D13239;}
	.st9{fill:#1D1D1B;}
	.st10{fill:#4EAD9B;stroke:#FFFFFF;stroke-miterlimit:10;}
	.st11{fill:#FEDC7C;stroke:#FFFFFF;stroke-miterlimit:10;}
	.st12{fill:#4EAD9B;stroke:#FFFFFF;stroke-width:2;stroke-miterlimit:10;}
	.st13{fill:#FEDC7C;stroke:#FFFFFF;stroke-width:2;stroke-miterlimit:10;}
	.st14{opacity:0.44;}
	.st15{fill:#F8F9F3;}
	.st16{fill:#F05C36;}
	.st17{fill:none;stroke:#155051;stroke-width:0.5;stroke-miterlimit:10;}
	.st18{fill:#11838D;}
	.st19{fill:#F15D37;}
	.st20{fill:#DCB244;}
	.st21{fill:none;stroke:#FFFFFF;stroke-width:3;stroke-miterlimit:10;}
	.st22{fill:none;stroke:#FEDC7C;stroke-miterlimit:10;}
	.st23{fill:none;stroke:#DCB244;stroke-width:3;stroke-miterlimit:10;}
	.st24{fill:#536870;}
	.st25{fill:#B5BEC4;}
	.st26{fill:#DAE0E5;}
	.st27{fill:#333333;}
	.st28{fill:#808285;}
	.st29{fill:#DFEFEC;stroke:#4EAD9B;stroke-miterlimit:10;}
	.st30{fill:none;stroke:#4EAD9B;stroke-miterlimit:10;}
	.st31{fill:#13BAB1;}
	.st32{fill:#909AA0;}
	.st33{clip-path:url(#SVGID_2_);}
	.st34{fill:none;stroke:#FFFFFF;stroke-width:2;stroke-miterlimit:10;}
</style>
<g>
	<g>
		<g>
			<g>
				<path class="st5" d="M23.86,0c-4.43,0.02-8.02,3.64-8.01,8.07c0.02,4.43,3.64,8.02,8.07,8.01c2.23-0.01,4.24-0.93,5.69-2.4
					l1,0.77l1.16-1.5l-1-0.78c0.73-1.22,1.16-2.64,1.16-4.16C31.91,3.58,28.29-0.02,23.86,0z M23.91,14.18
					c-1.29,0-2.48-0.39-3.47-1.07l1.5-1.6l-1.39-1.3l-1.5,1.6c-0.81-1.04-1.3-2.33-1.31-3.75c-0.01-3.39,2.73-6.15,6.12-6.16
					s6.15,2.73,6.16,6.12c0,1.08-0.28,2.1-0.77,2.99l-1.37-1.07l-1.16,1.5l1.37,1.06C27,13.53,25.53,14.17,23.91,14.18z"/>
			</g>
		</g>
		<g>
			<g>
				<path class="st5" d="M47.34,16.57c-2.76,0.01-5.25,1.16-7.03,3l-1.33-1.03l-1.16,1.5l1.3,1.01c-1.02,1.56-1.61,3.42-1.6,5.41
					c0.02,5.44,4.46,9.84,9.89,9.82s9.84-4.46,9.82-9.89C57.22,20.96,52.78,16.55,47.34,16.57z M47.41,34.39
					c-4.39,0.02-7.97-3.54-7.99-7.93c-0.01-1.56,0.44-3.01,1.21-4.24l1.07,0.83l1.16-1.5l-1.05-0.81c1.43-1.4,3.38-2.26,5.53-2.27
					c4.39-0.02,7.97,3.54,7.99,7.93S51.8,34.37,47.41,34.39z"/>
			</g>
		</g>
		<g>
			
				<rect x="14.23" y="15.33" transform="matrix(0.684 -0.7295 0.7295 0.684 -6.771 16.9349)" class="st5" width="3.85" height="1.9"/>
		</g>
		<g>
			<polygon class="st5" points="21.68,9.01 23.06,10.3 23.99,9.32 25.06,10.15 26.22,8.64 23.78,6.76 			"/>
		</g>
		<g>
			
				<rect x="33.85" y="14.04" transform="matrix(0.6126 -0.7904 0.7904 0.6126 0.4427 33.8927)" class="st5" width="1.9" height="4.92"/>
		</g>
		<g>
			<path class="st5" d="M47.36,21.43c-2.76,0.01-4.99,2.26-4.98,5.02c0.01,2.76,2.26,4.99,5.02,4.98c2.76-0.01,4.99-2.26,4.98-5.02
				S50.12,21.42,47.36,21.43z"/>
		</g>
		<g>
			<g>
				<path class="st5" d="M8.4,15.61c-4.66,0.02-8.42,3.81-8.4,8.46s3.81,8.42,8.46,8.4s8.42-3.81,8.4-8.46S13.06,15.59,8.4,15.61z
					 M8.45,27.65c-2,0.01-3.62-1.6-3.63-3.6c-0.01-2,1.6-3.62,3.6-3.63c0.74,0,1.43,0.22,2,0.6l-0.03,0.03l1.06,0.99
					c0.38,0.57,0.6,1.25,0.6,1.98C12.05,26.02,10.44,27.65,8.45,27.65z"/>
			</g>
		</g>
	</g>
</g>
</svg>
