<?xml version="1.0" encoding="utf-8"?>
<!-- Generator: Adobe Illustrator 24.2.3, SVG Export Plug-In . SVG Version: 6.00 Build 0)  -->
<svg version="1.1" id="Layer_1" xmlns="http://www.w3.org/2000/svg" xmlns:xlink="http://www.w3.org/1999/xlink" x="0px" y="0px"
	 viewBox="0 0 30 30" style="enable-background:new 0 0 30 30;" xml:space="preserve">
<style type="text/css">
	.st0{fill:#DF614A;}
</style>
<path class="st0" d="M28.5,26.3L28.5,26.3l-7.2-7.2c1.5-1.9,2.3-4.2,2.3-6.8c0-6.2-5.1-11.2-11.2-11.2S1.2,6.1,1.2,12.3
	s5.1,11.2,11.2,11.2c2.6,0,4.9-0.9,6.8-2.3l7.2,7.2c0.5,0.5,1.4,0.5,1.9,0l0,0l0.4-0.2C29,27.6,29,26.9,28.5,26.3z M22.3,12.3
	c0,5.6-4.6,10-10,10c-5.6,0-10-4.6-10-10c0-5.6,4.6-10,10-10C17.8,2.3,22.3,6.8,22.3,12.3z"/>
<path class="st0" d="M17.7,11.4h-4.8V6.6c0-0.4-0.2-0.6-0.6-0.6s-0.6,0.2-0.6,0.6v4.8H6.8c-0.4,0-0.6,0.2-0.6,0.6s0.2,0.6,0.6,0.6
	h4.8v4.8c0,0.4,0.2,0.6,0.6,0.6s0.6-0.2,0.6-0.6v-4.8h4.8c0.4,0,0.6-0.2,0.6-0.6S18.1,11.4,17.7,11.4z"/>
</svg>
