<svg xmlns="http://www.w3.org/2000/svg" viewBox="0 0 10.02 262.18"><defs><style>.cls-1{fill:#11838d;}.cls-2{fill:#f15d37;}.cls-3{fill:#dcb244;}.cls-4{fill:#f8f9f3;}</style></defs><g id="Layer_2" data-name="Layer 2"><g id="Camada_2" data-name="Camada 2"><circle class="cls-1" cx="5.01" cy="34.24" r="0.88"/><circle class="cls-1" cx="5.01" cy="44.24" r="0.88"/><circle class="cls-1" cx="5.01" cy="54.24" r="0.88"/><circle class="cls-1" cx="5.01" cy="64.24" r="0.88"/><circle class="cls-1" cx="5.01" cy="74.24" r="0.88"/><circle class="cls-1" cx="5.01" cy="84.24" r="0.88"/><circle class="cls-1" cx="5.01" cy="94.24" r="0.88"/><circle class="cls-1" cx="5.01" cy="104.24" r="0.88"/><circle class="cls-1" cx="5.01" cy="114.24" r="0.88"/><circle class="cls-1" cx="5.01" cy="124.24" r="0.88"/><circle class="cls-1" cx="5.01" cy="134.24" r="0.88"/><circle class="cls-1" cx="5.01" cy="144.24" r="0.88"/><circle class="cls-1" cx="5.01" cy="154.24" r="0.88"/><circle class="cls-1" cx="5.01" cy="164.24" r="0.88"/><circle class="cls-1" cx="5.01" cy="174.24" r="0.88"/><circle class="cls-1" cx="5.01" cy="184.24" r="0.88"/><circle class="cls-1" cx="5.01" cy="194.24" r="0.88"/><circle class="cls-1" cx="5.01" cy="204.24" r="0.88"/><circle class="cls-1" cx="5.01" cy="214.24" r="0.88"/><circle class="cls-1" cx="5.01" cy="224.24" r="0.88"/><circle class="cls-1" cx="5.01" cy="234.24" r="0.88"/><rect class="cls-2" x="1.67" y="17.68" width="6.68" height="6.68" transform="translate(16.33 2.61) rotate(45)"/><rect class="cls-1" x="1.67" y="12.01" width="6.68" height="6.68" transform="translate(12.32 0.95) rotate(45)"/><rect class="cls-3" x="2.77" y="0.93" width="4.47" height="4.47" transform="translate(3.7 -2.62) rotate(45)"/><rect class="cls-2" x="2.77" y="243.65" width="4.47" height="4.47" transform="translate(175.34 68.48) rotate(45)"/><rect class="cls-3" x="1.47" y="253.63" width="7.08" height="7.08" transform="translate(183.31 71.78) rotate(45)"/><rect class="cls-4" x="2.77" y="15.92" width="4.47" height="4.47" transform="translate(14.3 1.77) rotate(45)"/></g></g></svg>