<?xml version="1.0" encoding="utf-8"?>
<!-- Generator: Adobe Illustrator 24.2.3, SVG Export Plug-In . SVG Version: 6.00 Build 0)  -->
<svg version="1.1" id="Layer_1" xmlns="http://www.w3.org/2000/svg" xmlns:xlink="http://www.w3.org/1999/xlink" x="0px" y="0px"
	 viewBox="0 0 10 262.2" style="enable-background:new 0 0 10 262.2;" xml:space="preserve">
<style type="text/css">
	.st0{fill:#11838D;}
	.st1{fill:#F15D37;}
	.st2{fill:#DCB244;}
	.st3{fill:#F8F9F3;}
</style>
<g id="Layer_2_1_">
	<g id="Camada_2">
		<circle class="st0" cx="5" cy="227.9" r="0.9"/>
		<circle class="st0" cx="5" cy="217.9" r="0.9"/>
		<circle class="st0" cx="5" cy="207.9" r="0.9"/>
		<circle class="st0" cx="5" cy="197.9" r="0.9"/>
		<circle class="st0" cx="5" cy="187.9" r="0.9"/>
		<circle class="st0" cx="5" cy="177.9" r="0.9"/>
		<circle class="st0" cx="5" cy="167.9" r="0.9"/>
		<circle class="st0" cx="5" cy="157.9" r="0.9"/>
		<circle class="st0" cx="5" cy="147.9" r="0.9"/>
		<circle class="st0" cx="5" cy="137.9" r="0.9"/>
		<circle class="st0" cx="5" cy="127.9" r="0.9"/>
		<circle class="st0" cx="5" cy="117.9" r="0.9"/>
		<circle class="st0" cx="5" cy="107.9" r="0.9"/>
		<circle class="st0" cx="5" cy="97.9" r="0.9"/>
		<circle class="st0" cx="5" cy="87.9" r="0.9"/>
		<circle class="st0" cx="5" cy="77.9" r="0.9"/>
		<circle class="st0" cx="5" cy="67.9" r="0.9"/>
		<circle class="st0" cx="5" cy="57.9" r="0.9"/>
		<circle class="st0" cx="5" cy="47.9" r="0.9"/>
		<circle class="st0" cx="5" cy="37.9" r="0.9"/>
		<circle class="st0" cx="5" cy="27.9" r="0.9"/>
		
			<rect x="1.7" y="237.8" transform="matrix(0.7071 -0.7071 0.7071 0.7071 -169.0577 74.1704)" class="st1" width="6.7" height="6.7"/>
		
			<rect x="1.7" y="243.5" transform="matrix(0.7071 -0.7071 0.7071 0.7071 -173.0663 75.8314)" class="st0" width="6.7" height="6.7"/>
		
			<rect x="2.8" y="256.8" transform="matrix(0.7071 -0.7071 0.7071 0.7071 -181.6835 79.4069)" class="st2" width="4.5" height="4.5"/>
		<rect x="2.8" y="14.1" transform="matrix(0.7071 -0.7071 0.7071 0.7071 -10.0514 8.3054)" class="st1" width="4.5" height="4.5"/>
		<rect x="1.5" y="1.5" transform="matrix(0.7071 -0.7071 0.7071 0.7071 -2.0712 5.005)" class="st2" width="7.1" height="7.1"/>
		
			<rect x="2.8" y="241.8" transform="matrix(0.7071 -0.7071 0.7071 0.7071 -171.0844 75.0162)" class="st3" width="4.5" height="4.5"/>
	</g>
</g>
</svg>
